/* XPM */
static char *result[] = {
/* columns rows colors chars-per-pixel */
"16 16 184 2 ",
"   c #9C5419",
".  c #9E541A",
"X  c #BE5E0B",
"o  c #BE5E0C",
"O  c #A64F18",
"+  c #A65018",
"@  c #A15D18",
"#  c #A05C1A",
"$  c #B77214",
"%  c #BC7113",
"&  c #834C31",
"*  c #844C31",
"=  c #AB5F24",
"-  c #AC5F24",
";  c #8A643E",
":  c #8B643E",
">  c #BA6C20",
",  c #B6792B",
"<  c #B6782C",
"1  c #A17838",
"2  c #A07939",
"3  c #A47E39",
"4  c #A47E3A",
"5  c #CE6C07",
"6  c #CE6C08",
"7  c #D67305",
"8  c #D67405",
"9  c #C5701B",
"0  c #C87019",
"q  c #B7972E",
"w  c #B8972E",
"e  c #BFB138",
"r  c #BFB238",
"t  c #CC831D",
"y  c #CC841D",
"u  c #CD8E1F",
"i  c #CE8E1F",
"p  c #E68F05",
"a  c #E88F03",
"s  c #E79D0C",
"d  c #E79C0D",
"f  c #F49400",
"g  c #FB9900",
"h  c #F99B03",
"j  c #F89A04",
"k  c #FFA300",
"l  c #FFA400",
"z  c #FFAC00",
"x  c #FFAD00",
"c  c #F9AC0E",
"v  c #F9AC0F",
"b  c #FFAF14",
"n  c #FFB014",
"m  c #CD9B25",
"M  c #CE9B25",
"N  c #C99F2F",
"B  c #C79C36",
"V  c #C9A02D",
"C  c #C2AD37",
"Z  c #C2AC38",
"A  c #FFDF14",
"S  c #FFDC1C",
"D  c #FFDC1D",
"F  c #FFE218",
"G  c #FFE219",
"H  c #FFE22A",
"J  c #FFE22B",
"K  c #FFF12C",
"L  c #FFF12D",
"P  c #EFE03F",
"I  c #EEE13F",
"U  c #FFE434",
"Y  c #FFE435",
"T  c #A49D50",
"R  c #A59D50",
"E  c #A3A74C",
"W  c #A4A84B",
"Q  c #E8D640",
"!  c #E9D640",
"~  c #2C478A",
"^  c #2C478B",
"/  c #2E608E",
"(  c #2F618F",
")  c #3C7A97",
"_  c #3C7A98",
"`  c #006CCC",
"'  c #006DCD",
"]  c #0068DD",
"[  c #0068DE",
"{  c #006ADF",
"}  c #006BDF",
"|  c #0075D1",
" . c #0076D1",
".. c #0079D3",
"X. c #007AD3",
"o. c #006FE2",
"O. c #0072E2",
"+. c #007EE3",
"@. c #007DE8",
"#. c #007EE8",
"$. c #007FE8",
"%. c #007FE9",
"&. c #5794A0",
"*. c #5794A1",
"=. c #0888D4",
"-. c #0B89D4",
";. c #0080E4",
":. c #0084E6",
">. c #0086E6",
",. c #008FFF",
"<. c #0094FF",
"1. c #0096FF",
"2. c #00A1E9",
"3. c #08AAEA",
"4. c #12ADEB",
"5. c #1CB2ED",
"6. c #00A2FF",
"7. c #00A4FF",
"8. c #00AAFD",
"9. c #00ADFD",
"0. c #00ADFF",
"q. c #00B3F6",
"w. c #01B6F7",
"e. c #00B7FF",
"r. c #01BAF8",
"t. c #06BCF9",
"y. c #00B9FF",
"u. c #15BDF4",
"i. c #18BEF4",
"p. c #16BDF9",
"a. c #16BDFA",
"s. c #1EBFF9",
"d. c #36B7EE",
"f. c #49BEF0",
"g. c #1BC0F5",
"h. c #1DC1F4",
"j. c #1FC0FA",
"k. c #34C4F6",
"l. c #34C5F6",
"z. c #43C5F0",
"x. c #43C7F2",
"c. c #44C4F0",
"v. c #49C5F1",
"b. c #43C9F2",
"n. c #49C8F2",
"m. c #5ACCF2",
"M. c #5ACFF2",
"N. c #53CFF8",
"B. c #78CBF2",
"V. c #80CBF3",
"C. c #89D0F3",
"Z. c #8DD3F5",
"A. c #8CD4F6",
"S. c #99DBF6",
"D. c #9ADAF6",
"F. c #9EDBF7",
"G. c #9EDCF7",
"H. c #9FDCF7",
"J. c #9DDFF7",
"K. c #A1DBF6",
"L. c #A0DDF6",
"P. c #A1DFF7",
"I. c #AADEF7",
"U. c #B1DAF5",
"Y. c #AFE2F8",
"T. c #B5E3F8",
"R. c #B9E5F9",
"E. c #B8E7F9",
"W. c #B9E7FA",
"Q. c #C1E1F7",
"!. c #C2E2F8",
"~. c #CCECFA",
"^. c #CCEDFA",
"/. c #CEEEFB",
"(. c #D5EBFA",
"). c #D9EDFA",
"_. c #DAF1FC",
"`. c #E3F7FD",
"'. c #E3F7FE",
"]. c #E7F4FD",
"[. c #FEFBFE",
"{. c #FFFDFE",
"}. c white",
"|. c None",
/* pixels */
"|.|.|.|.|.! U H J Y Q |.|.|.|.|.",
"|.|.|.r K n , ; : < b L e |.|.|.",
"|.|.I G = ~ ' ;.+.` ^ - F P |.|.",
"|.w A & [ 0.r.i.h.t.0.] * A q |.",
"|.D > } e.z.B.S.J.A.c.y.{ > S |.",
"m x ( 6.m.U.(.}.}.[.Q.v.7./ x M ",
"v y | j.L.~.].V./.K.}.G.a. .t c ",
"l 2 @.N.W.}.R.2.5.f.}.`.k.$.1 l ",
"g 3 #.N.E.}.Y.4.3.d.}.'.l.%.4 g ",
"a i ..s.H.^._.I.T.C.}.F.p.X.u p ",
"$ z ) <.M.U.).}.}.{.!.n.1._ x % ",
"|.j V o.8.b.B.D.P.Z.x.9.o.N h |.",
"|.@ k E O.,.q.u.g.w.,.O.W k # |.",
"|.|.9 f Z &.-.>.:.=.*.C f 0 |.|.",
"|.|.|.. 8 d B T R B s 7   |.|.|.",
"|.|.|.|.|.+ o 6 5 X O |.|.|.|.|."
};
