/* XPM */
static char *result[] = {
/* columns rows colors chars-per-pixel */
"32 32 191 2 ",
"   c #7C3F36",
".  c #6C423B",
"X  c #7B4037",
"o  c #4E4655",
"O  c #6B6C56",
"+  c #74785B",
"@  c #434863",
"#  c #616E64",
"$  c #627065",
"%  c #96441C",
"&  c #A34C19",
"*  c #A54A14",
"=  c #A95515",
"-  c #AA551B",
";  c #B35F1B",
":  c #BF620E",
">  c #AE631F",
",  c #AB691D",
"<  c #AE6F17",
"1  c #BB6D16",
"2  c #B4641B",
"3  c #BB6E1A",
"4  c #B56818",
"5  c #B4721A",
"6  c #B9761A",
"7  c #AD7019",
"8  c #904F25",
"9  c #975627",
"0  c #936A39",
"q  c #AE6420",
"w  c #B76B20",
"e  c #CD5C00",
"r  c #CA6205",
"t  c #DF7D09",
"y  c #C37B1B",
"u  c #C67816",
"i  c #EC7F00",
"p  c #6C997A",
"a  c #AF8422",
"s  c #B78622",
"d  c #B99E2E",
"f  c #CE8518",
"g  c #CA8316",
"h  c #D48D15",
"j  c #D58A1C",
"k  c #D4931B",
"l  c #DB941A",
"z  c #DA981A",
"x  c #E78507",
"c  c #F28C00",
"v  c #EA960D",
"b  c #FD9C01",
"n  c #E29319",
"m  c #E19516",
"M  c #F09913",
"N  c #DFA11E",
"B  c #FEA300",
"V  c #F0A10E",
"C  c #FFB409",
"Z  c #EAA61A",
"A  c #F3A611",
"S  c #F8B71D",
"D  c #EFA20E",
"F  c #D19B27",
"G  c #C9AB32",
"H  c #D2AC35",
"J  c #D7B937",
"K  c #D8B02E",
"L  c #E5AD27",
"P  c #E3AA22",
"I  c #F4BA27",
"U  c #EDBF39",
"Y  c #E7B021",
"T  c #FFCD12",
"R  c #F6C21C",
"E  c #FFD818",
"W  c #DADA3B",
"Q  c #E4C32E",
"!  c #FECC22",
"~  c #EEC438",
"^  c #F4C938",
"/  c #F5C834",
"(  c #ECD43D",
")  c #E9D037",
"_  c #FBD739",
"`  c #FFE129",
"'  c #FFF126",
"]  c #FFE13B",
"[  c #9C8743",
"{  c #AD9647",
"}  c #B8B943",
"|  c #A9BC5F",
" . c #B1BE59",
".. c #82A471",
"X. c #D9D047",
"o. c #EED241",
"O. c #F8D542",
"+. c #FFEB44",
"@. c #FFE746",
"#. c #FFF349",
"$. c #FFFD4D",
"%. c #FFF647",
"&. c #395484",
"*. c #335C86",
"=. c #3B6685",
"-. c #095AAE",
";. c #0047B5",
":. c #025EB6",
">. c #0765B6",
",. c #46738A",
"<. c #0048C3",
"1. c #0057C8",
"2. c #0064CB",
"3. c #006ACF",
"4. c #0074CE",
"5. c #006AD3",
"6. c #006FD9",
"7. c #0073D4",
"8. c #0075D8",
"9. c #007ADB",
"0. c #007FD4",
"q. c #0083D6",
"w. c #008BD7",
"e. c #0083DC",
"r. c #018AD8",
"t. c #0995D6",
"y. c #0F9CD3",
"u. c #0795D7",
"i. c #109BD3",
"p. c #139FD9",
"a. c #15A4DC",
"s. c #18A6DA",
"d. c #19A8DE",
"f. c #17A6DA",
"g. c #008CE5",
"h. c #0094E6",
"j. c #00A6EA",
"k. c #01ABEB",
"l. c #0BAEEA",
"z. c #0EAEE7",
"x. c #16A7E1",
"c. c #15AFE9",
"v. c #16AEE8",
"b. c #01B0EC",
"n. c #0DB1EC",
"m. c #12B2EA",
"M. c #1BB2EB",
"N. c #27B6ED",
"B. c #32BDEF",
"V. c #3DBBEE",
"C. c #49BDEE",
"Z. c #5BBFEF",
"A. c #57BFEF",
"S. c #47BDF0",
"D. c #3FC3F1",
"F. c #52C1EE",
"G. c #5CC1EF",
"H. c #44C2F0",
"J. c #4CC2F0",
"K. c #55C5F1",
"L. c #65CAF1",
"P. c #6ECCF2",
"I. c #68C2F0",
"U. c #7ACFF2",
"Y. c #73CCF2",
"T. c #7DD6F5",
"R. c #73D0F3",
"E. c #6BC9F1",
"W. c #89CEF2",
"Q. c #84D5F4",
"!. c #8CD4F4",
"~. c #8DD8F5",
"^. c #91D5F4",
"/. c #96DAF5",
"(. c #9CDAF5",
"). c #9ED6F5",
"_. c #ACDFF7",
"`. c #B2DEF6",
"'. c #B8DFF5",
"]. c #B7E2F8",
"[. c #AFE2F8",
"{. c #C3E9F9",
"}. c #DBECF8",
"|. c #D4EFFA",
" X c #D4F0FA",
".X c #DCF3FB",
"XX c #E4F5FC",
"oX c #ECF9FE",
"OX c #FFFFFF",
"+X c #F3FAFD",
"@X c None",
/* pixels */
"@X@X@X@X@X@X@X@X@X@X@X@XH J o.O.O.o.J H @X@X@X@X@X@X@X@X@X@X@X@X",
"@X@X@X@X@X@X@X@X@XG o.+.$.$.#.@.#.#.$.$.@.o.G @X@X@X@X@X@X@X@X@X",
"@X@X@X@X@X@X@Xd ( #.#._ I M x t t t M I O.#.%.o.d @X@X@X@X@X@X@X",
"@X@X@X@X@X@XH +.+.~ v r % . o @ @ o   8 e v ^ #.+.H @X@X@X@X@X@X",
"@X@X@X@X@X) +._ Z e   &.>.4.q.q.9.9.4.>.&.X e M _ +.) @X@X@X@X@X",
"@X@X@X@X_ ] ^ x * &.7.e.t.p.a.f.a.x.p.t.w.4.&.* x ^ _ _ @X@X@X@X",
"@X@X@XK ] ~ i 8 >.9.y.a.v.M.n.b.k.k.n.c.s.y.e.>.8 x ~ ] K @X@X@X",
"@X@Xa ] U c 9 2.w.a.m.n.b.k.n.B.D.D.n.k.b.M.f.q.2.9 c ~ ] a @X@X",
"@X@X/ / M r :.r.a.m.b.n.G.!.!.^.T.!.!.!.N.k.m.a.w.:.e V ^ / @X@X",
"@Xs _ L i *.9.a.n.k.V.`.'.W.!./././.!.^.`.L.j.m.s.9.*.i L _ s @X",
"@XL I b 0 2.y.c.k.F.}.).Z.[.OXOXOXOXOX`.I.].U.j.v.i.3.0 b I L @X",
"@XI P c =.e.a.k.V.}.!.A.+XOXOXOXOXOXOXOX+XZ.`.J.j.d.9.=.c P I @X",
"6 ! D 6 >.u.n.l.(.{.G.oXOXXXQ.XXOX+X!..XOXoXP._.k.z.u.>.y D / 6 ",
"F L b 0 3.a.k.H.XXL./.OXOX{.g.S.OXXXh.[.OXOX/.^.K.j.a.3.0 b Y k ",
"z N b O 7.a.j.P.XXP. XOXOXA.k.k.S.B.k.S.OXOX X(.Q.j.a.7.O b N z ",
"l z b # 9.a.k.Q.|.R.oXOXOXQ.M.K.k.U.c.Q.OXOXoX~.T.k.a.9.# b z z ",
"h k B $ 9.a.k.T.|.U.oXOXOX/.v.!.l.P.M.^.OXOXoXQ.T.k.a.8.$ b k l ",
"h h B + 7.a.j.R.XXR. XOXOXC.k.N.B.j.k.S.OXOX X_.Q.j.a.7.+ B h h ",
"g h B [ 2.p.k.H. XL./.OXOX`.h. XOXV.g.].OXOX/.~.K.k.a.2.[ B h g ",
"5 m v F :.t.z.l.(.{.G.XXOXXX^.+XOXXXW.XXOXXXP._.k.z.u.:.F D m 7 ",
"@Xl h C =.9.d.k.V.}.!.G.+XOXOXOXOXOXOXOX+XZ.[.F.k.x.9.=.C g z @X",
"@Xh g C { 1.i.m.k.F.}.).Z.`.OXOXOXOXOX_.I.].U.j.m.y.1.{ C g h @X",
"@X< n f T =.7.s.n.k.V.`.].^.Q./././.!.^.'.L.j.m.s.6.=.T f n < @X",
"@X@Xl 1 A Q ;.q.d.n.k.l.F.~.!.!.Q./.^.!.N.j.m.d.q.;.Q A u l @X@X",
"@X@X, n 4 T } ;.q.d.v.n.b.k.m.D.D.D.n.k.b.M.f.q.<.} T 2 n , @X@X",
"@X@X@Xy u 3 E } ;.8.i.f.c.m.n.b.k.k.n.v.f.y.5.;.} E u u y @X@X@X",
"@X@X@X@Xj 1 2 E W =.<.7.t.a.f.a.a.a.f.u.7.<.,.W E 4 1 j @X@X@X@X",
"@X@X@X@X@Xy 3 - Z '  .,.-.1.2.3.3.3.1.-.,. .' Z = 1 y @X@X@X@X@X",
"@X@X@X@X@X@X3 y = 3 R ` X.| ..p p ..| X.` R 1 = u 5 @X@X@X@X@X@X",
"@X@X@X@X@X@X@X> w 2 & 2 k S ! ! ! ! S k 2 & ; w > @X@X@X@X@X@X@X",
"@X@X@X@X@X@X@X@X@Xq w 2 & & & & & & & & > w q @X@X@X@X@X@X@X@X@X",
"@X@X@X@X@X@X@X@X@X@X@X@Xq q q q q 2 > q @X@X@X@X@X@X@X@X@X@X@X@X"
};
