/* XPM */
static char *result[] = {
/* columns rows colors chars-per-pixel */
"64 64 221 2 ",
"   c #3D627E",
".  c #355C7F",
"X  c #7D5E44",
"o  c #7A604A",
"O  c #505C6B",
"+  c #466879",
"@  c #5C6A67",
"#  c #637368",
"$  c #9B5D17",
"%  c #B84E06",
"&  c #B75709",
"*  c #A64E12",
"=  c #A45216",
"-  c #AA5A17",
";  c #AE4B0B",
":  c #9A631B",
">  c #AE641E",
",  c #A7661A",
"<  c #B2661F",
"1  c #B36B1D",
"2  c #B66717",
"3  c #B5711A",
"4  c #BB731B",
"5  c #BC7617",
"6  c #AF711E",
"7  c #995E2B",
"8  c #945E30",
"9  c #92743E",
"0  c #9D6633",
"q  c #AD6320",
"w  c #AB6A23",
"e  c #B56820",
"r  c #AC7E25",
"t  c #B67925",
"y  c #A57330",
"u  c #C55400",
"i  c #D25F00",
"p  c #C96506",
"a  c #CB730B",
"s  c #D97603",
"d  c #C37C1A",
"f  c #C57816",
"g  c #D17C17",
"h  c #CC6E10",
"j  c #E27500",
"k  c #846744",
"l  c #67806F",
"z  c #BE811B",
"x  c #9D8021",
"c  c #B88527",
"v  c #AD892D",
"b  c #CC8515",
"n  c #C4831C",
"m  c #CA831A",
"M  c #CD8A1A",
"N  c #CB8716",
"B  c #D18B15",
"V  c #D38D19",
"C  c #D7871B",
"Z  c #D69316",
"A  c #D5921A",
"S  c #DB9C1C",
"D  c #DA9718",
"F  c #DA8C0D",
"G  c #E68705",
"H  c #F68B00",
"J  c #F49602",
"K  c #E59819",
"L  c #E99212",
"P  c #DCA11E",
"I  c #F6A50A",
"U  c #FFB809",
"Y  c #E8A61B",
"T  c #F7B719",
"R  c #C58B28",
"E  c #CA9328",
"W  c #D79A21",
"Q  c #DEA322",
"!  c #DAA52C",
"~  c #D8A733",
"^  c #D9B337",
"/  c #D0B22E",
"(  c #E4AB25",
")  c #E5AC2A",
"_  c #E2A723",
"`  c #EAB32C",
"'  c #EBB72D",
"]  c #F6B825",
"[  c #EDBC32",
"{  c #E5B835",
"}  c #F1BF32",
"|  c #E5AF30",
" . c #FDC914",
".. c #FDD419",
"X. c #FFD10F",
"o. c #FFE61F",
"O. c #DCC33A",
"+. c #DBC12A",
"@. c #FBC52C",
"#. c #FBD728",
"$. c #EAC73D",
"%. c #F4C334",
"&. c #F5C639",
"*. c #F5CB3B",
"=. c #FACD3C",
"-. c #FBCB33",
";. c #FBD23C",
":. c #FDD739",
">. c #FFE926",
",. c #FFFB2D",
"<. c #FFE739",
"1. c #FFFE39",
"2. c #95904F",
"3. c #B6AE49",
"4. c #C4BB48",
"5. c #D3C244",
"6. c #FBD241",
"7. c #FEDC43",
"8. c #F3D441",
"9. c #FFE443",
"0. c #FFEB47",
"q. c #FFF344",
"w. c #FFF647",
"e. c #003EB1",
"r. c #0A569E",
"t. c #1C5C91",
"y. c #1D5791",
"u. c #114A9B",
"i. c #24568D",
"p. c #25588E",
"a. c #26598D",
"s. c #0249A5",
"d. c #0259AB",
"f. c #0957A3",
"g. c #0043B3",
"h. c #004ABA",
"j. c #0055BA",
"k. c #005CBA",
"l. c #0053B5",
"z. c #0063BB",
"x. c #016BBD",
"c. c #0063B7",
"v. c #0E79B5",
"b. c #0372BB",
"n. c #0E7AB9",
"m. c #0A75B8",
"M. c #147EB5",
"N. c #127DB9",
"B. c #0460AB",
"V. c #3B6C84",
"C. c #005BC2",
"Z. c #0064C1",
"A. c #1481B6",
"S. c #1383BC",
"D. c #1285C1",
"F. c #128AC5",
"G. c #128CC9",
"H. c #1293CD",
"J. c #1396D1",
"K. c #139AD4",
"L. c #139ED9",
"P. c #13A3DD",
"I. c #019BE6",
"U. c #019AE8",
"Y. c #00A2E7",
"T. c #00A4E9",
"R. c #02ACEB",
"E. c #0BACEB",
"W. c #09AAE7",
"Q. c #13A6E1",
"!. c #13ABE5",
"~. c #13AEE9",
"^. c #18A9E9",
"/. c #0CB2EC",
"(. c #05B0EB",
"). c #14B3EB",
"_. c #1AB5ED",
"`. c #1AB5EB",
"'. c #2BAEEA",
"]. c #23ABEA",
"[. c #23B4EB",
"{. c #2CB2EC",
"}. c #24B9EE",
"|. c #2BBAED",
" X c #3CBAED",
".X c #36B7EC",
"XX c #3EBEF0",
"oX c #43BDED",
"OX c #47B7EC",
"+X c #4FB9EC",
"@X c #67BFEE",
"#X c #4AC3EE",
"$X c #5BC4EF",
"%X c #49C4F1",
"&X c #5AC7F1",
"*X c #68C4EE",
"=X c #67CBF2",
"-X c #74CDF1",
";X c #7CCDF3",
":X c #7AD2F4",
">X c #75D0F3",
",X c #71C4ED",
"<X c #8CD4F4",
"1X c #87D5F4",
"2X c #97D9F4",
"3X c #81CDF2",
"4X c #A5DDF5",
"5X c #AADEF6",
"6X c #B6DFF4",
"7X c #AAE2F7",
"8X c #B7E4F7",
"9X c #9EE0F6",
"0X c #C7EBF9",
"qX c #D4EDF9",
"wX c #DCF1FA",
"eX c #E4F5FB",
"rX c #ECF6FC",
"tX c #ECF8FB",
"yX c #F4FBFD",
"uX c #FFFFFF",
"iX c None",
/* pixels */
"iXiXiXiXiXiXiXiXiXiXiXiXiXiXiXiXiXiXiXiXiXiXiXiXiXiXv E ^ 5.8.8.8.8.O.^ E y iXiXiXiXiXiXiXiXiXiXiXiXiXiXiXiXiXiXiXiXiXiXiXiXiXiX",
"iXiXiXiXiXiXiXiXiXiXiXiXiXiXiXiXiXiXiXiXiXiXv ^ 8.7.w.0.0.9.7.7.7.6.0.0.0.w.0.8.^ v iXiXiXiXiXiXiXiXiXiXiXiXiXiXiXiXiXiXiXiXiXiX",
"iXiXiXiXiXiXiXiXiXiXiXiXiXiXiXiXiXiXiXiX/ 7.w.9.7.6.6.6.6.;.8.*.8.6.8.6.6.6.6.9.0.0.7./ iXiXiXiXiXiXiXiXiXiXiXiXiXiXiXiXiXiXiXiX",
"iXiXiXiXiXiXiXiXiXiXiXiXiXiXiXiXiXr $.q.0.7.8.8.8.8.6.7.9.9.9.9.9.9.9.7.6.6.8.6.8.8.6.q.0.O.v iXiXiXiXiXiXiXiXiXiXiXiXiXiXiXiXiX",
"iXiXiXiXiXiXiXiXiXiXiXiXiXiXiXiXO.q.9.;.=.=.=.6.9.9.7.&.{ ^ ~ ~ ~ ~ { { *.7.9.9.7.6.=.=.=.9.q.O.iXiXiXiXiXiXiXiXiXiXiXiXiXiXiXiX",
"iXiXiXiXiXiXiXiXiXiXiXiXiXiXE q.9.=.&.*.=.9.9.8.~ R t > - % % % % % ; - - t R ~ *.9.7.=.*.&.=.9.w.E iXiXiXiXiXiXiXiXiXiXiXiXiXiX",
"iXiXiXiXiXiXiXiXiXiXiXiXiX$.w.;.&.&.=.9.:.~ t - ; % u u - w 8 8 8 8 7 - u u % ; - t ~ :.9.=.&.&.;.w.$.iXiXiXiXiXiXiXiXiXiXiXiXiX",
"iXiXiXiXiXiXiXiXiXiXiXv <.9.&.*.&.7.:.~ w = u u q o O . t.f.d.B.B.d.f.y.V.O X q p u * w ~ :.7.&.*.%.9.q.r iXiXiXiXiXiXiXiXiXiXiX",
"iXiXiXiXiXiXiXiXiXiXr q.*.%.$.&.:.{ w * i h k + f.z.Z.b.m.n.n.n.N.n.n.m.b.x.c.f.+ 8 2 i ; w { <.*.%.%.;.q.x iXiXiXiXiXiXiXiXiXiX",
"iXiXiXiXiXiXiXiXiXc 1.%.[ [ =.:.R = i a o p.z.Z.v.N.S.S.F.F.F.F.G.G.G.F.D.S.N.m.x.k.t.o a i = R :.=.[ [ %.w.c iXiXiXiXiXiXiXiXiX",
"iXiXiXiXiXiXiXiXv 1.%.%.[ :.%.6 & j 0 p.z.b.M.S.F.H.H.J.K.L.P.K.K.K.K.K.H.H.G.D.S.M.b.C.a.0 j & 6 %.:.%.%.%.1.r iXiXiXiXiXiXiXiX",
"iXiXiXiXiXiXiX4 <.%.' [ :.' , p s O k.x.M.D.F.H.K.K.P.P.Q.P.P.P.Q.P.Q.Q.P.P.L.K.H.F.D.M.x.j.O s p , ' :.' %.%.<.t iXiXiXiXiXiXiX",
"iXiXiXiXiXiXiX<.&.' [ ;.) - s h p.Z.v.S.F.H.K.L.P.Q.Q.!.).~.).~.~.).!.!.!.!.P.P.L.K.H.F.S.M.Z.p.f s = ) =.[ ' %.<.iXiXiXiXiXiXiX",
"iXiXiXiXiXiX:.=.{ [ &.` , j 4 f.Z.M.D.H.K.L.P.Q.!.).).).).).).).).).).).).).).).!.P.L.K.G.D.M.z.r.4 s , ' =.[ { =.:.iXiXiXiXiXiX",
"iXiXiXiXiXR :.` ' %.[ 1 j 4 d.x.A.F.H.L.P.Q.).).).).).).).)./.(.R.R.R./.).).).).).!.Q.P.L.H.F.M.z.d.f j 1 ' %.' ` :.R iXiXiXiXiX",
"iXiXiXiXiX<.' ' ' %.4 s g f.x.N.F.H.L.P.~.).).)./.(.).R.T.T.W.).}.}.).R.T.T.(.).`.).~.!.Q.L.J.F.S.z.f.g s 5 %.[ ' ' <.iXiXiXiXiX",
"iXiXiXiX' -.` ` %.A a j p.Z.A.F.J.L.P.).).).).R.`..X!.^.-X8XtXuXuXuXuXtX8X-X[.Y.R.).).).~.Q.L.J.F.M.z.p.j a E @.` ` -.` iXiXiXiX",
"iXiXiX, :.) ` %.( 2 H @ C.M.F.J.P.Q.).).).R.R.$X+X@X8XuXuXtX4X>X&X&X>X4XrXuXuX6X XY.(.`.).!.!.L.J.F.M.C.@ H 5 _ [ ` ) :., iXiXiX",
"iXiXiX` @.) ` ' n G y j.M.D.H.L.Q.!.).).T.{.2X,X<XuXuX;X].!.'. X%X%X X'.!.].;XuXuX2XW.T.).).~.Q.L.H.D.N.j.y G n ' ` ) @.` iXiXiX",
"iXiXiX#.( ) ' W g G t.b.S.G.L.Q.!.).).T.#X6X,X8XuX3XI.].<XeXuXuXuXuXuXuXeX<X'.I.;XuXrX{.R.).).!.Q.K.G.S.x.p.G f W [ ( ) -.iXiXiX",
"iXiXA @.( ( ` n H k C.A.F.K.P.Q.).).Y.$XqX+XwXuX].P.5XuXuXuXuXuXuXuXuXuXuXuXuX5XQ.^.yXuX.XY.).).^.P.K.D.A.k.k H N ` ) _ @.E iXiX",
"iXiX@.) _ ` S g G y.Z.S.H.L.!.).`.T.oXyXOXeXrXI. XuXuXuXuXuXuXuXuXuXuXuXuXuXuXuXuXOXU.eXuX{.R.).).Q.L.H.S.x.t.G g P ) _ Y @.iXiX",
"iX: @._ _ ( M H 9 j.v.F.K.P.!.).R.~.uX*X6XuXI.@XuXuXuXuXuXuXuXuXuXuXuXuXuXuXuXuXuXuX@XU.yXrXW.(.`.~.P.K.G.M.j.9 H M ) _ Q @.: iX",
"iXW ] Q Q Q N J + x.S.H.L.!.~.).Y.0X7X,XuX^..XuXuXuXuXuXuXuXuXuXuXuXuXuXuXuXuXuXuXuXuXOX~.uX4XI.).).Q.P.H.S.Z.+ J N _ ( Q ] S iX",
"iXP ( P ( S F m r.m.F.K.P.~.).R.oXuXOXuX3XI.uXuXuXuXuXuXuXuXuXuXuXuXuXuXuXuXuXuXuXuXuXuXY.;XuX{.R.).!.Q.J.F.m.f.n F W ( P ( _ iX",
"iX] Q Y Q A J 9 k.M.G.K.P.).).R.wX5X1XuXU.8XuXuXuXuXuX5X].].2XuXuXuXuXqX{.].4XuXuXuXuXuX8XI.uX0XY.).).Q.L.G.A.k.9 J A _ Q P ] iX",
": T S Q P B J @ z.S.J.P.P.).R.|.uX$XyX3X`.uXuXuXuXuXuX<XU.R.T.eXuXuXuX0XT.U.1XuXuXuXuXuXuX[.-XuX[.R.).Q.P.H.S.z.@ J B Q P P T : ",
"z ( S P S B H   x.D.J.P.!.).T.1XrX=XuX~.<XuXuXuXuXuXuX8XT.}.T.oXuXuXuXrXR.T.7XuXuXuXuXuXuX2XE.uX>XT.).!.P.H.D.x.  G F S P P ( 5 ",
"M ( S S S F B t.x.F.K.P.~./.T.qX4X2XtXW.tXuXuXuXuXuX8XoX/._._.R.&X:X:X=X).). X8XuXuXuXuXuXtXW.eX0XT.).!.Q.K.S.b.t.F F S P S Y M ",
"A Y S D A J z r.n.F.K.Q.!./.R.yX2X8X4X{.uXuXuXuXuXuX#XU.}._./._.(.T.T.U.}.}.U.XXuXuXuXuXuXuX{.7XyXR.(.~.Q.K.G.v.B.z L S S D Y A ",
"A S D S A J c d.n.G.L.Q.~.(.`.uX:XeX:XXXuXuXuXuXuXuX2X`._._.}.E._.}.&X|._._.).<XuXuXuXuXuXuX X>XuX).(.).Q.L.F.n.d.c J A S S S A ",
"A D Z D A I v d.n.G.K.Q.~.R.|.uX>XyX&X%XuXuXuXuXuXuXuX2XT._.eXoXT._.yXyX(.T.2XuXuXuXuXuXuXuX#X&XuX[.R.).Q.L.F.v.d.c J Z Z Z D A ",
"A D Z A A J c d.n.F.P.!.~.R.|.uX-XyX=XoXuXuXuXuXuXuXuX7XI.R.uXuX).T.&XuX).U.7XuXuXuXuXuXuXuX%X%XuX|.R.).Q.L.G.n.d.c J A A A Z V ",
"C D V Z A I c d.n.F.K.P.).R.).uX:XwX1X XuXuXuXuXuXuX5X{./.).%X>X}._.(.XX}./.{.4XuXuXuXuXuXuXoX-XuX).R.).Q.L.G.v.d.c I Z Z A D V ",
"N D Z B A I E r.n.F.K.P.!./.(.yX1X8X5X{.uXuXuXuXuXuX#XU.}.}.Y.U.R.R._.R._.}.U.XXuXuXuXuXuXuX{.2XuXR./.~.Q.K.F.m.f.E I Z B B D B ",
"n K B B Z Y D t.b.F.K.P.!.).Y.qX7X2XyXW.eXuXuXuXuXuX5X{./._.%X&X&XoXR._._./.{.4XuXuXuXuXuXyXW.rX0XT.).!.P.K.F.b.t.K Y Z B B K n ",
"5 D B B B Y I + x.D.J.P.!.).T.1XeX=XuX~.<XuXuXuXuXuXuX7XY.E.eXuXuXuX XT.}.T.2XuXuXuXuXuXuX2XE.uX-XT.).!.P.H.D.Z.+ I P B B B F 5 ",
": L B B B S U @ k.S.H.P.!.).R.}.uX&XyX1X`.uXuXuXuXuXuX<XU.Y.0XuXuXuXwXT.R.U.<XuXuXuXuXuXuX[.-XuX`.R.).!.P.H.S.k.# U S B B B Y : ",
"iXD B B b S U 2.l.M.F.L.P.).).Y.wX4X1XuXI.7XuXuXuXuXuX7X'.'.qXuXuXuXuX<X'.'.7XuXuXuXuXuX8XU.uX0XY.).~.P.K.H.M.l.2.U W b B B D iX",
"iXB Z B b V T W f.n.D.J.P.~.).R.oXuXoXuX1XI.uXuXuXuXuXuXuXuXuXuXuXuXuXuXuXuXuXuXuXuXuXuXY.;XuX.XR.`.!.P.K.D.m.r.A T A b B Z B iX",
"iXm K b M B ( U + k.N.H.K.!.~.).I.0X8X*XuX!. XuXuXuXuXuXuXuXuXuXuXuXuXuXuXuXuXuXuXuXuXOX~.uX4XY.).).Q.P.H.S.k.+ U ( M b M K n iX",
"iX: Y N B b W  .2.g.M.F.K.P.~.`.W.E.uX*X8XuXI.@XuXuXuXuXuXuXuXuXuXuXuXuXuXuXuXuXuXuX*XI.uXtXY.R.`.!.Q.K.F.A.g.2. .Q b B M K - iX",
"iXiXK N B d W ] T y.x.D.H.L.Q.)._.R.oXyXOXwXrXI.OXuXuXuXuXuXuXuXuXuXuXuXuXuXuXuXuXOXI.eXuX[.R.).~.Q.K.H.S.x.y.Y ] A d B N K iXiX",
"iXiX5 K b b d )  .2.h.A.G.J.P.!.).).T.$XqX+XwXuX].Q.5XuXuXuXuXuXuXuXuXuXuXuXuX5XP.].yXuX.XT.).).~.P.K.G.A.h.2.X.) d B b K 5 iXiX",
"iXiXiXK b C f W @.T p.x.S.G.K.P.~.).).T.+X8X@X8XuX3XI.'.<XeXuXuXuXuXuXuXeX<X'.I.;XuXrX'.Y._.).!.Q.K.H.S.Z.p.T @.W f b b Y iXiXiX",
"iXiXiXM A m m f | ..v h.M.D.J.P.P.).).).Y..X2X,X<XuXuX3X'.~.'.oX#X#XoX'.!.'.;XuXuX2XW.R.).).!.Q.P.H.S.v.h.v ..{ f m m A M iXiXiX",
"iXiXiX, K f m f M &.X.# h.A.D.K.P.Q.!./._.R.W.*X+X,X6XuXuXyX4X:X&X=X:X4XyXuXuX8X XY.R._.).!.Q.P.H.F.A.h.# X.%.b f m f K , iXiXiX",
"iXiXiXiXB B d m f W :. .i.j.A.F.J.P.Q.!.).)./.R.`.|.W.`.-X8XtXuXuXuXuXtX8X-X[.T.Y.).).).~.!.P.H.G.S.j.i. .:.Q 5 m m C M iXiXiXiX",
"iXiXiXiXiXK g d d d { #.' u.k.A.F.J.L.Q.~.).).)./.(./.(.R.T.W.).}.}.).R.R.T.R.).).).).!.P.P.J.G.S.k.u.( >.' 5 f d d K iXiXiXiXiX",
"iXiXiXiXiX5 K d d f f 6.o./ s.c.A.D.H.K.P.Q.~.).).).).).).)./.(.R.R.(./.).).).).).!.!.P.L.H.F.A.k.s./ o.&.f f d d K t iXiXiXiXiX",
"iXiXiXiXiXiXK m d d 2 d ;.o./ u.k.A.S.G.K.L.P.Q.~.).).).).~./.).).).).~.).).).!.P.P.L.K.H.S.A.l.u./ o.6.n 2 g d g K iXiXiXiXiXiX",
"iXiXiXiXiXiXiXC d d d 2 m ;.>.^ p.h.v.S.F.H.K.L.P.Q.Q.~.~.).).!.!.).~.~.~.Q.Q.P.P.K.H.F.S.v.h.a.+.>.6.n 2 n 5 d K iXiXiXiXiXiXiX",
"iXiXiXiXiXiXiXt C f d d 2 5 6.<.#.# g.k.A.S.F.J.J.K.P.P.P.Q.Q.Q.P.P.!.P.P.P.K.K.H.F.S.A.l.e.# #.>.8.5 2 d d d C e iXiXiXiXiXiXiX",
"iXiXiXiXiXiXiXiX, C 4 5 5 2 5 $.<.o.3.i.g.z.A.D.D.G.H.H.J.K.L.L.P.K.K.K.H.H.H.D.S.M.z.g.i.3.o.<.$.t 2 d 4 4 C , iXiXiXiXiXiXiXiX",
"iXiXiXiXiXiXiXiXiXw C 1 5 5 2 - ! 9.,.#.2.t.l.k.m.A.S.D.S.F.G.G.F.F.F.F.S.S.A.m.k.h.t.2.#.,.9.! - 2 4 3 3 C 1 iXiXiXiXiXiXiXiXiX",
"iXiXiXiXiXiXiXiXiXiX, m 4 3 5 3 = c $.q.,.:.2.+ r.g.l.c.b.m.n.n.v.v.m.b.z.l.g.f.+ 2.#.1.q.$.c - 4 f 1 4 m , iXiXiXiXiXiXiXiXiXiX",
"iXiXiXiXiXiXiXiXiXiXiX3 C 4 1 4 4 - - E $.<.1.>.O.2.l V.t.r.d.f.s.s.r.t.V.l 2.5.<.1.1.$.R - - 5 1 1 f C w iXiXiXiXiXiXiXiXiXiXiX",
"iXiXiXiXiXiXiXiXiXiXiXiXiX4 f 1 1 4 2 - > c { 9.w.1.1.<.;.5.4.3.3.5.5.*.<.,.1.w.7.{ R - * 1 1 1 1 f 4 iXiXiXiXiXiXiXiXiXiXiXiXiX",
"iXiXiXiXiXiXiXiXiXiXiXiXiXiX1 f e e 1 e 1 = = 1 E ^ *.7.<.w.w.w.w.w.w.1.:.$.^ E 1 = = < 3 1 < 1 f e iXiXiXiXiXiXiXiXiXiXiXiXiXiX",
"iXiXiXiXiXiXiXiXiXiXiXiXiXiXiXiXe f e < 1 1 1 - = = - 3 c c R E E E c c t - = = - 1 1 < 1 1 f e iXiXiXiXiXiXiXiXiXiXiXiXiXiXiXiX",
"iXiXiXiXiXiXiXiXiXiXiXiXiXiXiXiXiX: 1 e e < > e 1 > > - = = = = = = = = - < < e q < > e e e q iXiXiXiXiXiXiXiXiXiXiXiXiXiXiXiXiX",
"iXiXiXiXiXiXiXiXiXiXiXiXiXiXiXiXiXiXiXiX> e < q > q q w q < q q q q q q q > q q e e e > iXiXiXiXiXiXiXiXiXiXiXiXiXiXiXiXiXiXiXiX",
"iXiXiXiXiXiXiXiXiXiXiXiXiXiXiXiXiXiXiXiXiXiX: e e q e < q q q q q q - e < e < > 1 : iXiXiXiXiXiXiXiXiXiXiXiXiXiXiXiXiXiXiXiXiXiX",
"iXiXiXiXiXiXiXiXiXiXiXiXiXiXiXiXiXiXiXiXiXiXiXiXiXiX, q < w e q e q < < > : iXiXiXiXiXiXiXiXiXiXiXiXiXiXiXiXiXiXiXiXiXiXiXiXiXiX"
};
